<?xml version="1.0" encoding="UTF-8"?>
<svg version="1.1" viewBox="0 0 20 20" xmlns="http://www.w3.org/2000/svg">
<path d="m4.832 7.6367c-0.57422 0-1.0586-0.19531-1.457-0.59375-0.39844-0.39844-0.59766-0.88281-0.59766-1.457 0-0.57422 0.20312-1.0625 0.60938-1.4609 0.41016-0.39844 0.89844-0.59766 1.4727-0.59766 0.55859 0 1.0352 0.19922 1.4297 0.59766 0.39844 0.39844 0.59766 0.88672 0.59766 1.4609 0 0.57422-0.19922 1.0586-0.59766 1.457-0.39453 0.39844-0.88281 0.59375-1.457 0.59375zm-1.0547 12.363c-0.37109 0-0.68359-0.12891-0.94531-0.38672-0.25781-0.26172-0.38672-0.57422-0.38672-0.94531h-0.66797c-0.48047 0-0.89844-0.17578-1.25-0.52734-0.35156-0.35156-0.52734-0.76953-0.52734-1.25v-5.1133h3.1094v-0.66406c0-0.59375 0.21875-1.0938 0.65625-1.5 0.43359-0.41016 0.95703-0.61328 1.5664-0.61328 0.27734 0 0.55078 0.050781 0.82031 0.15234 0.26953 0.10156 0.49609 0.25391 0.67969 0.46094l1.3594 1.1641c0.1875 0.14844 0.37109 0.3125 0.55859 0.48828 0.18359 0.17578 0.37109 0.34766 0.55469 0.51172h7.1953v-8.9453c0-0.38672-0.12891-0.71484-0.39062-0.98438-0.25781-0.26953-0.58203-0.40234-0.97266-0.40234-0.27734 0-0.52344 0.078126-0.73438 0.23438-0.21484 0.16016-0.41406 0.33984-0.59766 0.54297l-0.83203 0.83203c0.089844 0.35156 0.097656 0.69922 0.011719 1.043-0.082031 0.34375-0.25391 0.63281-0.51172 0.875l-2.4453-2.4453c0.24219-0.25781 0.52734-0.42969 0.85938-0.51172 0.33594-0.085937 0.67578-0.078125 1.0273 0.011719l1.168-1.1367c0.31641-0.29688 0.63672-0.51953 0.96094-0.66797 0.32031-0.14844 0.66016-0.22266 1.0117-0.22266 0.81641 0 1.5 0.29297 2.0547 0.875 0.55859 0.58594 0.83594 1.2734 0.83594 2.0703v8.832h2.2773v5.1133c0 0.48047-0.17578 0.89844-0.52734 1.25-0.35156 0.35156-0.76953 0.52734-1.25 0.52734h-0.66797c0 0.37109-0.12891 0.68359-0.39062 0.94531-0.25781 0.25781-0.57031 0.38672-0.94141 0.38672zm-2-2.7773h16.668c0.089844 0 0.16797-0.03125 0.23438-0.097656 0.066406-0.066406 0.097656-0.14453 0.097656-0.23438v-3.668h-17.332v3.668c0 0.089844 0.03125 0.16797 0.097657 0.23438 0.0625 0.066406 0.14062 0.097656 0.23438 0.097656zm17 0h-17.332z"/>
</svg>
