<svg xmlns="http://www.w3.org/2000/svg" viewBox="0 0 20 20" xmlns:v="https://vecta.io/nano"><path d="M4.779 7.845c-.568 0-1.047-.176-1.441-.536a1.71 1.71 0 0 1-.591-1.315c0-.518.201-.959.603-1.319s.889-.539 1.457-.539a2.01 2.01 0 0 1 1.414.539c.394.36.591.8.591 1.319a1.71 1.71 0 0 1-.591 1.315c-.39.36-.873.536-1.441.536zM3.736 19.003c-.367 0-.676-.116-.935-.349s-.382-.518-.382-.853h-.661c-.475 0-.889-.159-1.236-.476S0 16.63 0 16.197v-4.615h3.075v-.599c0-.536.216-.987.649-1.354s.947-.554 1.549-.554a2.48 2.48 0 0 1 .811.137 1.68 1.68 0 0 1 .672.416l1.345 1.051.552.441.549.462h7.116V3.508a1.17 1.17 0 0 0-.386-.888c-.255-.243-.576-.363-.962-.363a1.27 1.27 0 0 0-.726.212c-.212.145-.41.307-.591.49l-.823.751c.089.317.097.631.012.941s-.251.571-.506.79L9.918 3.233a1.75 1.75 0 0 1 .85-.462 2.2 2.2 0 0 1 1.016.011l1.155-1.026c.313-.268.63-.469.95-.603A2.55 2.55 0 0 1 14.89.952c.807 0 1.484.264 2.032.79s.827 1.149.827 1.869v7.971h2.252v4.615c0 .434-.174.811-.522 1.128s-.761.476-1.236.476h-.661c0 .335-.127.617-.386.853s-.564.349-.931.349zm-1.978-2.507h16.485a.33.33 0 0 0 .232-.088c.066-.06.097-.13.097-.212v-3.311H1.43v3.311c0 .081.031.152.097.212s.139.088.232.088zm16.814 0H1.429z"/></svg>