<svg xmlns="http://www.w3.org/2000/svg" viewBox="0 0 22 20" xmlns:v="https://vecta.io/nano"><path d="M3.409 19.213h-.574L1.56 15.426H0V9.154c0-.71.258-1.317.778-1.816s1.136-.747 1.849-.747h.331V3.277c0-.684.258-1.276.778-1.775A2.58 2.58 0 0 1 5.585.751H16.43c.739 0 1.363.251 1.872.751s.759 1.091.759 1.775v3.314h.327c.739 0 1.363.248 1.872.747s.759 1.095.759 1.779v6.309h-1.56l-1.275 3.787h-.574l-1.275-3.787H4.683zm8.67-12.622h4.845V3.277c0-.133-.046-.244-.143-.337s-.212-.137-.35-.137h-4.352zm-6.987 0h4.849V2.804H5.585a.48.48 0 0 0-.347.137.45.45 0 0 0-.146.337zm-2.958 6.786h17.748v-4.26c0-.133-.046-.244-.143-.337s-.212-.137-.35-.137H2.627a.48.48 0 0 0-.347.137.45.45 0 0 0-.146.337zm17.748 0H2.134z"/></svg>