<?xml version="1.0" encoding="UTF-8"?>
<svg version="1.1" viewBox="0 0 22 20" xmlns="http://www.w3.org/2000/svg">
<path d="m3.457 19.5h-0.58203l-1.293-4h-1.582v-6.625c0-0.75 0.26172-1.3906 0.78906-1.918 0.52734-0.52734 1.1523-0.78906 1.875-0.78906h0.33594v-3.5c0-0.72266 0.26172-1.3477 0.78906-1.875 0.52734-0.52734 1.1523-0.79297 1.875-0.79297h11c0.75 0 1.3828 0.26562 1.8984 0.79297 0.51172 0.52734 0.76953 1.1523 0.76953 1.875v3.5h0.33203c0.75 0 1.3828 0.26172 1.8984 0.78906 0.51172 0.52734 0.76953 1.1562 0.76953 1.8789v6.6641h-1.582l-1.293 4h-0.58203l-1.293-4h-12.832zm8.793-13.332h4.9141v-3.5c0-0.14062-0.046874-0.25781-0.14453-0.35547-0.097656-0.097656-0.21484-0.14453-0.35547-0.14453h-4.4141zm-7.0859 0h4.918v-4h-4.418c-0.13672 0-0.25391 0.046875-0.35156 0.14453s-0.14844 0.21484-0.14844 0.35547zm-3 7.168h18v-4.5c0-0.14063-0.046874-0.25781-0.14453-0.35547-0.097656-0.097657-0.21484-0.14453-0.35547-0.14453h-17c-0.13672 0-0.25391 0.046874-0.35156 0.14453-0.097656 0.097656-0.14844 0.21484-0.14844 0.35547zm18 0h-18z"/>
</svg>