<svg height="19.991" viewBox="0 -960 744.545 959.551" width="15.511" xmlns="http://www.w3.org/2000/svg"><path d="M165.557-164.403q-22.962 0-39.98-17.06-17.018-17.058-17.018-40.019 0-22.962 17.059-39.217t40.021-16.255q22.96 0 39.215 15.973 16.255 15.971 16.255 39.582 0 22.96-15.97 39.978-15.974 17.018-39.582 17.018zm206.674 0q-23.61 0-39.54-17.06-15.93-17.058-15.93-40.019 0-22.962 15.971-39.217t39.582-16.255q23.61 0 39.54 15.973 15.93 15.971 15.93 39.582 0 22.96-15.971 39.978t-39.582 17.018zm206.675 0q-22.96 0-39.216-17.06-16.255-17.058-16.255-40.019 0-22.962 15.972-39.217t39.581-16.255q22.962 0 39.98 15.973 17.018 15.971 17.018 39.582 0 22.96-17.06 39.978-17.058 17.018-40.02 17.018zM0-398.541v-79.335Q0-622.01 95.334-727.211q95.333-105.203 237.271-120.707V-960h79.334v112.735q142.244 14.487 237.424 119.797 95.182 105.311 95.182 249.592v79.335zm79.336-79.335h585.873q0-122.057-85.785-207.497-85.784-85.44-207.496-85.44-121.713 0-207.153 85.684t-85.44 207.253zM165.556-.45q-22.961 0-39.98-15.97-17.017-15.972-17.017-39.582t17.059-39.54q17.059-15.93 40.021-15.93 22.96 0 39.215 15.97Q221.11-79.53 221.11-55.919q0 23.61-15.97 39.54-15.974 15.93-39.582 15.93zm206.675 0q-23.61 0-39.54-15.97-15.93-15.972-15.93-39.582 0-22.962 15.971-39.979 15.971-17.018 39.582-17.018 23.61 0 39.54 17.06 15.93 17.057 15.93 40.019t-15.971 39.217Q395.842-.45 372.23-.45zm206.675 0q-22.96 0-39.216-15.97-16.255-15.972-16.255-39.582t15.972-39.54q15.972-15.93 39.581-15.93 22.962 0 39.98 15.97 17.018 15.971 17.018 39.582 0 23.61-17.06 39.54-17.058 15.93-40.02 15.93zM372.272-477.876z" style="stroke-width:1.52571"/></svg>